<svg width="127" height="57" viewBox="0 0 127 57" fill="none" xmlns="http://www.w3.org/2000/svg">
<mask id="path-1-outside-1_109_12" maskUnits="userSpaceOnUse" x="-1" y="-1" width="129" height="60" fill="black">
<rect fill="white" x="-1" y="-1" width="129" height="60"/>
<path d="M17.384 39.28C17.384 42.8213 16.744 45.744 15.464 48.048C14.2267 50.352 12.5627 52.144 10.472 53.424C8.424 54.7467 5.97067 55.8773 3.112 56.816L0.296 49.392C2.17333 48.6667 3.58133 47.8347 4.52 46.896C5.45867 45.9573 6.07733 44.8693 6.376 43.632C6.71733 42.3947 6.888 40.816 6.888 38.896V1.648H17.384V39.28ZM43.3925 0.559998C49.7072 0.559998 54.6138 2.58666 58.1125 6.64C61.6538 10.6933 63.4245 16.4107 63.4245 23.792C63.4245 28.6133 62.6138 32.7733 60.9925 36.272C59.4138 39.7707 57.1098 42.4587 54.0805 44.336C51.0938 46.1707 47.5312 47.088 43.3925 47.088C39.2538 47.088 35.6912 46.1707 32.7045 44.336C29.7178 42.5013 27.4138 39.856 25.7925 36.4C24.2138 32.9013 23.4245 28.6987 23.4245 23.792C23.4245 19.0133 24.2138 14.8747 25.7925 11.376C27.4138 7.87733 29.7178 5.21067 32.7045 3.376C35.6912 1.49866 39.2538 0.559998 43.3925 0.559998ZM43.3925 8.24C40.3632 8.24 38.1018 9.47733 36.6085 11.952C35.1578 14.384 34.4325 18.3307 34.4325 23.792C34.4325 29.2533 35.1792 33.2213 36.6725 35.696C38.1658 38.1707 40.4058 39.408 43.3925 39.408C46.4645 39.408 48.7258 38.192 50.1765 35.76C51.6698 33.2853 52.4165 29.296 52.4165 23.792C52.4165 18.288 51.6698 14.32 50.1765 11.888C48.6832 9.456 46.4218 8.24 43.3925 8.24ZM80.9465 39.28C80.9465 42.8213 80.3065 45.744 79.0265 48.048C77.7892 50.352 76.1252 52.144 74.0345 53.424C71.9865 54.7467 69.5332 55.8773 66.6745 56.816L63.8585 49.392C65.7358 48.6667 67.1438 47.8347 68.0825 46.896C69.0212 45.9573 69.6398 44.8693 69.9385 43.632C70.2798 42.3947 70.4505 40.816 70.4505 38.896V1.648H80.9465V39.28ZM106.955 0.559998C113.27 0.559998 118.176 2.58666 121.675 6.64C125.216 10.6933 126.987 16.4107 126.987 23.792C126.987 28.6133 126.176 32.7733 124.555 36.272C122.976 39.7707 120.672 42.4587 117.643 44.336C114.656 46.1707 111.094 47.088 106.955 47.088C102.816 47.088 99.2537 46.1707 96.267 44.336C93.2803 42.5013 90.9763 39.856 89.355 36.4C87.7763 32.9013 86.987 28.6987 86.987 23.792C86.987 19.0133 87.7763 14.8747 89.355 11.376C90.9763 7.87733 93.2803 5.21067 96.267 3.376C99.2537 1.49866 102.816 0.559998 106.955 0.559998ZM106.955 8.24C103.926 8.24 101.664 9.47733 100.171 11.952C98.7203 14.384 97.995 18.3307 97.995 23.792C97.995 29.2533 98.7417 33.2213 100.235 35.696C101.728 38.1707 103.968 39.408 106.955 39.408C110.027 39.408 112.288 38.192 113.739 35.76C115.232 33.2853 115.979 29.296 115.979 23.792C115.979 18.288 115.232 14.32 113.739 11.888C112.246 9.456 109.984 8.24 106.955 8.24Z"/>
</mask>
<path d="M17.384 39.28C17.384 42.8213 16.744 45.744 15.464 48.048C14.2267 50.352 12.5627 52.144 10.472 53.424C8.424 54.7467 5.97067 55.8773 3.112 56.816L0.296 49.392C2.17333 48.6667 3.58133 47.8347 4.52 46.896C5.45867 45.9573 6.07733 44.8693 6.376 43.632C6.71733 42.3947 6.888 40.816 6.888 38.896V1.648H17.384V39.28ZM43.3925 0.559998C49.7072 0.559998 54.6138 2.58666 58.1125 6.64C61.6538 10.6933 63.4245 16.4107 63.4245 23.792C63.4245 28.6133 62.6138 32.7733 60.9925 36.272C59.4138 39.7707 57.1098 42.4587 54.0805 44.336C51.0938 46.1707 47.5312 47.088 43.3925 47.088C39.2538 47.088 35.6912 46.1707 32.7045 44.336C29.7178 42.5013 27.4138 39.856 25.7925 36.4C24.2138 32.9013 23.4245 28.6987 23.4245 23.792C23.4245 19.0133 24.2138 14.8747 25.7925 11.376C27.4138 7.87733 29.7178 5.21067 32.7045 3.376C35.6912 1.49866 39.2538 0.559998 43.3925 0.559998ZM43.3925 8.24C40.3632 8.24 38.1018 9.47733 36.6085 11.952C35.1578 14.384 34.4325 18.3307 34.4325 23.792C34.4325 29.2533 35.1792 33.2213 36.6725 35.696C38.1658 38.1707 40.4058 39.408 43.3925 39.408C46.4645 39.408 48.7258 38.192 50.1765 35.76C51.6698 33.2853 52.4165 29.296 52.4165 23.792C52.4165 18.288 51.6698 14.32 50.1765 11.888C48.6832 9.456 46.4218 8.24 43.3925 8.24ZM80.9465 39.28C80.9465 42.8213 80.3065 45.744 79.0265 48.048C77.7892 50.352 76.1252 52.144 74.0345 53.424C71.9865 54.7467 69.5332 55.8773 66.6745 56.816L63.8585 49.392C65.7358 48.6667 67.1438 47.8347 68.0825 46.896C69.0212 45.9573 69.6398 44.8693 69.9385 43.632C70.2798 42.3947 70.4505 40.816 70.4505 38.896V1.648H80.9465V39.28ZM106.955 0.559998C113.27 0.559998 118.176 2.58666 121.675 6.64C125.216 10.6933 126.987 16.4107 126.987 23.792C126.987 28.6133 126.176 32.7733 124.555 36.272C122.976 39.7707 120.672 42.4587 117.643 44.336C114.656 46.1707 111.094 47.088 106.955 47.088C102.816 47.088 99.2537 46.1707 96.267 44.336C93.2803 42.5013 90.9763 39.856 89.355 36.4C87.7763 32.9013 86.987 28.6987 86.987 23.792C86.987 19.0133 87.7763 14.8747 89.355 11.376C90.9763 7.87733 93.2803 5.21067 96.267 3.376C99.2537 1.49866 102.816 0.559998 106.955 0.559998ZM106.955 8.24C103.926 8.24 101.664 9.47733 100.171 11.952C98.7203 14.384 97.995 18.3307 97.995 23.792C97.995 29.2533 98.7417 33.2213 100.235 35.696C101.728 38.1707 103.968 39.408 106.955 39.408C110.027 39.408 112.288 38.192 113.739 35.76C115.232 33.2853 115.979 29.296 115.979 23.792C115.979 18.288 115.232 14.32 113.739 11.888C112.246 9.456 109.984 8.24 106.955 8.24Z" fill="#141414"/>
<path d="M15.464 48.048L14.5898 47.5624L14.5864 47.5686L14.583 47.5749L15.464 48.048ZM10.472 53.424L9.94985 52.5712L9.93958 52.5774L9.92947 52.584L10.472 53.424ZM3.112 56.816L2.177 57.1707L2.51595 58.0642L3.42397 57.7661L3.112 56.816ZM0.296 49.392L-0.0643994 48.4592L-0.991477 48.8174L-0.638998 49.7467L0.296 49.392ZM4.52 46.896L3.81289 46.1889L4.52 46.896ZM6.376 43.632L5.41201 43.3661L5.40771 43.3816L5.40392 43.3974L6.376 43.632ZM6.888 1.648V0.647999H5.888V1.648H6.888ZM17.384 1.648H18.384V0.647999H17.384V1.648ZM16.384 39.28C16.384 42.7075 15.7638 45.4493 14.5898 47.5624L16.3382 48.5336C17.7242 46.0387 18.384 42.9352 18.384 39.28H16.384ZM14.583 47.5749C13.4237 49.7336 11.8792 51.3899 9.94985 52.5712L10.9942 54.2768C13.2461 52.8981 15.0296 50.9704 16.345 48.5211L14.583 47.5749ZM9.92947 52.584C7.96775 53.8509 5.5956 54.948 2.80003 55.8659L3.42397 57.7661C6.34574 56.8067 8.88025 55.6424 11.0145 54.264L9.92947 52.584ZM4.047 56.4613L1.231 49.0373L-0.638998 49.7467L2.177 57.1707L4.047 56.4613ZM0.656399 50.3248C2.60305 49.5727 4.1524 48.6778 5.22711 47.6031L3.81289 46.1889C3.01027 46.9915 1.74362 47.7607 -0.0643994 48.4592L0.656399 50.3248ZM5.22711 47.6031C6.29004 46.5402 7.00434 45.2907 7.34808 43.8666L5.40392 43.3974C5.15033 44.448 4.6273 45.3745 3.81289 46.1889L5.22711 47.6031ZM7.33999 43.8979C7.71389 42.5426 7.888 40.8661 7.888 38.896H5.888C5.888 40.7659 5.72078 42.2468 5.41201 43.3661L7.33999 43.8979ZM7.888 38.896V1.648H5.888V38.896H7.888ZM6.888 2.648H17.384V0.647999H6.888V2.648ZM16.384 1.648V39.28H18.384V1.648H16.384ZM58.1125 6.64L57.3555 7.29342L57.3594 7.29794L58.1125 6.64ZM60.9925 36.272L60.0851 35.8515L60.081 35.8607L60.9925 36.272ZM54.0805 44.336L54.6039 45.1881L54.6073 45.186L54.0805 44.336ZM32.7045 44.336L32.1811 45.1881L32.7045 44.336ZM25.7925 36.4L24.881 36.8113L24.884 36.818L24.8872 36.8247L25.7925 36.4ZM25.7925 11.376L24.8851 10.9555L24.881 10.9647L25.7925 11.376ZM32.7045 3.376L33.2279 4.22812L33.2367 4.22264L32.7045 3.376ZM36.6085 11.952L35.7523 11.4353L35.7497 11.4397L36.6085 11.952ZM36.6725 35.696L37.5287 35.1793L36.6725 35.696ZM50.1765 35.76L49.3203 35.2433L49.3177 35.2477L50.1765 35.76ZM50.1765 11.888L51.0287 11.3647V11.3647L50.1765 11.888ZM43.3925 1.56C49.4739 1.56 54.0814 3.50023 57.3555 7.29341L58.8695 5.98659C55.1463 1.67311 49.9404 -0.440002 43.3925 -0.440002V1.56ZM57.3594 7.29794C60.6909 11.1111 62.4245 16.5625 62.4245 23.792H64.4245C64.4245 16.2588 62.6168 10.2756 58.8656 5.98206L57.3594 7.29794ZM62.4245 23.792C62.4245 28.5034 61.6322 32.5133 60.0852 35.8515L61.8998 36.6925C63.5955 33.0334 64.4245 28.7232 64.4245 23.792H62.4245ZM60.081 35.8607C58.5775 39.1928 56.4009 41.7215 53.5537 43.486L54.6073 45.186C57.8188 43.1958 60.2502 40.3486 61.904 36.6833L60.081 35.8607ZM53.5571 43.4839C50.7544 45.2056 47.3802 46.088 43.3925 46.088V48.088C47.6822 48.088 51.4333 47.1357 54.6039 45.1881L53.5571 43.4839ZM43.3925 46.088C39.4048 46.088 36.0306 45.2056 33.2279 43.4839L32.1811 45.1881C35.3517 47.1357 39.1028 48.088 43.3925 48.088V46.088ZM33.2279 43.4839C30.4223 41.7605 28.244 39.271 26.6978 35.9753L24.8872 36.8247C26.5837 40.441 29.0133 43.2422 32.1811 45.1881L33.2279 43.4839ZM26.704 35.9887C25.1975 32.65 24.4245 28.5949 24.4245 23.792H22.4245C22.4245 28.8025 23.2302 33.1527 24.881 36.8113L26.704 35.9887ZM24.4245 23.792C24.4245 19.1214 25.1961 15.1291 26.704 11.7873L24.881 10.9647C23.2316 14.6202 22.4245 18.9053 22.4245 23.792H24.4245ZM26.6998 11.7965C28.247 8.45769 30.4255 5.94953 33.2279 4.22808L32.1811 2.52392C29.0101 4.4718 26.5806 7.29697 24.8852 10.9555L26.6998 11.7965ZM33.2367 4.22264C36.038 2.46178 39.409 1.56 43.3925 1.56V-0.440002C39.0987 -0.440002 35.3443 0.535545 32.1723 2.52936L33.2367 4.22264ZM43.3925 7.24C40.0333 7.24 37.437 8.64352 35.7523 11.4353L37.4647 12.4687C38.7666 10.3111 40.693 9.24 43.3925 9.24V7.24ZM35.7497 11.4397C34.1547 14.1137 33.4325 18.2897 33.4325 23.792H35.4325C35.4325 18.3716 36.161 14.6543 37.4673 12.4643L35.7497 11.4397ZM33.4325 23.792C33.4325 29.2991 34.1772 33.4965 35.8163 36.2127L37.5287 35.1793C36.1811 32.9462 35.4325 29.2075 35.4325 23.792H33.4325ZM35.8163 36.2127C37.4979 38.9993 40.0698 40.408 43.3925 40.408V38.408C40.7419 38.408 38.8337 37.342 37.5287 35.1793L35.8163 36.2127ZM43.3925 40.408C46.7805 40.408 49.3865 39.0365 51.0353 36.2723L49.3177 35.2477C48.0652 37.3475 46.1485 38.408 43.3925 38.408V40.408ZM51.0327 36.2767C52.6723 33.5597 53.4165 29.34 53.4165 23.792H51.4165C51.4165 29.252 50.6674 33.011 49.3203 35.2433L51.0327 36.2767ZM53.4165 23.792C53.4165 18.2465 52.6731 14.0428 51.0287 11.3647L49.3243 12.4113C50.6666 14.5972 51.4165 18.3295 51.4165 23.792H53.4165ZM51.0287 11.3647C49.3403 8.61512 46.7436 7.24 43.3925 7.24V9.24C46.1001 9.24 48.026 10.2969 49.3243 12.4113L51.0287 11.3647ZM79.0265 48.048L78.1523 47.5624L78.1489 47.5686L78.1455 47.5749L79.0265 48.048ZM74.0345 53.424L73.5123 52.5712L73.5021 52.5774L73.492 52.584L74.0345 53.424ZM66.6745 56.816L65.7395 57.1707L66.0785 58.0642L66.9865 57.7661L66.6745 56.816ZM63.8585 49.392L63.4981 48.4592L62.571 48.8174L62.9235 49.7467L63.8585 49.392ZM68.0825 46.896L67.3754 46.1889L68.0825 46.896ZM69.9385 43.632L68.9745 43.3661L68.9702 43.3816L68.9664 43.3974L69.9385 43.632ZM70.4505 1.648V0.647999H69.4505V1.648H70.4505ZM80.9465 1.648H81.9465V0.647999H80.9465V1.648ZM79.9465 39.28C79.9465 42.7075 79.3263 45.4493 78.1523 47.5624L79.9007 48.5336C81.2867 46.0387 81.9465 42.9352 81.9465 39.28H79.9465ZM78.1455 47.5749C76.9862 49.7336 75.4417 51.3899 73.5123 52.5712L74.5567 54.2768C76.8086 52.8981 78.5921 50.9704 79.9075 48.5211L78.1455 47.5749ZM73.492 52.584C71.5303 53.8509 69.1581 54.948 66.3625 55.8659L66.9865 57.7661C69.9082 56.8067 72.4427 55.6424 74.577 54.264L73.492 52.584ZM67.6095 56.4613L64.7935 49.0373L62.9235 49.7467L65.7395 57.1707L67.6095 56.4613ZM64.2189 50.3248C66.1656 49.5727 67.7149 48.6778 68.7896 47.6031L67.3754 46.1889C66.5728 46.9915 65.3061 47.7607 63.4981 48.4592L64.2189 50.3248ZM68.7896 47.6031C69.8525 46.5402 70.5668 45.2907 70.9106 43.8666L68.9664 43.3974C68.7128 44.448 68.1898 45.3745 67.3754 46.1889L68.7896 47.6031ZM70.9025 43.8979C71.2764 42.5426 71.4505 40.8661 71.4505 38.896H69.4505C69.4505 40.7659 69.2833 42.2468 68.9745 43.3661L70.9025 43.8979ZM71.4505 38.896V1.648H69.4505V38.896H71.4505ZM70.4505 2.648H80.9465V0.647999H70.4505V2.648ZM79.9465 1.648V39.28H81.9465V1.648H79.9465ZM121.675 6.64L120.918 7.29342L120.922 7.29794L121.675 6.64ZM124.555 36.272L123.648 35.8515L123.643 35.8607L124.555 36.272ZM117.643 44.336L118.166 45.1881L118.17 45.186L117.643 44.336ZM96.267 44.336L95.7436 45.1881L96.267 44.336ZM89.355 36.4L88.4435 36.8113L88.4465 36.818L88.4497 36.8247L89.355 36.4ZM89.355 11.376L88.4476 10.9555L88.4435 10.9647L89.355 11.376ZM96.267 3.376L96.7904 4.22812L96.7992 4.22264L96.267 3.376ZM100.171 11.952L99.3148 11.4353L99.3122 11.4397L100.171 11.952ZM100.235 35.696L101.091 35.1793L100.235 35.696ZM113.739 35.76L112.883 35.2433L112.88 35.2477L113.739 35.76ZM113.739 11.888L114.591 11.3647V11.3647L113.739 11.888ZM106.955 1.56C113.036 1.56 117.644 3.50023 120.918 7.29341L122.432 5.98659C118.709 1.67311 113.503 -0.440002 106.955 -0.440002V1.56ZM120.922 7.29794C124.253 11.1111 125.987 16.5625 125.987 23.792H127.987C127.987 16.2588 126.179 10.2756 122.428 5.98206L120.922 7.29794ZM125.987 23.792C125.987 28.5034 125.195 32.5133 123.648 35.8515L125.462 36.6925C127.158 33.0334 127.987 28.7232 127.987 23.792H125.987ZM123.643 35.8607C122.14 39.1928 119.963 41.7215 117.116 43.486L118.17 45.186C121.381 43.1958 123.813 40.3486 125.467 36.6833L123.643 35.8607ZM117.12 43.4839C114.317 45.2056 110.943 46.088 106.955 46.088V48.088C111.245 48.088 114.996 47.1357 118.166 45.1881L117.12 43.4839ZM106.955 46.088C102.967 46.088 99.5931 45.2056 96.7904 43.4839L95.7436 45.1881C98.9142 47.1357 102.665 48.088 106.955 48.088V46.088ZM96.7904 43.4839C93.9848 41.7605 91.8065 39.271 90.2603 35.9753L88.4497 36.8247C90.1462 40.441 92.5758 43.2422 95.7436 45.1881L96.7904 43.4839ZM90.2665 35.9887C88.76 32.65 87.987 28.5949 87.987 23.792H85.987C85.987 28.8025 86.7927 33.1527 88.4435 36.8113L90.2665 35.9887ZM87.987 23.792C87.987 19.1214 88.7586 15.1291 90.2665 11.7873L88.4435 10.9647C86.7941 14.6202 85.987 18.9053 85.987 23.792H87.987ZM90.2623 11.7965C91.8095 8.45769 93.988 5.94953 96.7904 4.22808L95.7436 2.52392C92.5726 4.4718 90.1431 7.29697 88.4477 10.9555L90.2623 11.7965ZM96.7992 4.22264C99.6005 2.46178 102.971 1.56 106.955 1.56V-0.440002C102.661 -0.440002 98.9068 0.535545 95.7348 2.52936L96.7992 4.22264ZM106.955 7.24C103.596 7.24 101 8.64352 99.3148 11.4353L101.027 12.4687C102.329 10.3111 104.255 9.24 106.955 9.24V7.24ZM99.3122 11.4397C97.7172 14.1137 96.995 18.2897 96.995 23.792H98.995C98.995 18.3716 99.7235 14.6543 101.03 12.4643L99.3122 11.4397ZM96.995 23.792C96.995 29.2991 97.7397 33.4965 99.3788 36.2127L101.091 35.1793C99.7436 32.9462 98.995 29.2075 98.995 23.792H96.995ZM99.3788 36.2127C101.06 38.9993 103.632 40.408 106.955 40.408V38.408C104.304 38.408 102.396 37.342 101.091 35.1793L99.3788 36.2127ZM106.955 40.408C110.343 40.408 112.949 39.0365 114.598 36.2723L112.88 35.2477C111.628 37.3475 109.711 38.408 106.955 38.408V40.408ZM114.595 36.2767C116.235 33.5597 116.979 29.34 116.979 23.792H114.979C114.979 29.252 114.23 33.011 112.883 35.2433L114.595 36.2767ZM116.979 23.792C116.979 18.2465 116.236 14.0428 114.591 11.3647L112.887 12.4113C114.229 14.5972 114.979 18.3295 114.979 23.792H116.979ZM114.591 11.3647C112.903 8.61512 110.306 7.24 106.955 7.24V9.24C109.663 9.24 111.589 10.2969 112.887 12.4113L114.591 11.3647Z" fill="black" mask="url(#path-1-outside-1_109_12)"/>
</svg>
